<?xml version="1.0" standalone="no"?>
<!DOCTYPE svg PUBLIC "-//W3C//DTD SVG 20010904//EN"
 "http://www.w3.org/TR/2001/REC-SVG-20010904/DTD/svg10.dtd">
<svg version="1.0" xmlns="http://www.w3.org/2000/svg"
 width="89.000000pt" height="99.000000pt" viewBox="0 0 89.000000 99.000000"
 preserveAspectRatio="xMidYMid meet">
<metadata>
Created by potrace 1.10, written by Peter Selinger 2001-2011
</metadata>
<g transform="translate(0.000000,99.000000) scale(0.100000,-0.100000)"
fill="#000000" stroke="none">
<path d="M152 918 c-20 -20 -14 -40 27 -94 21 -28 45 -64 52 -80 17 -34 62
-54 87 -37 13 8 16 22 14 65 -3 45 0 57 18 73 20 18 40 20 192 23 93 2 176 1
185 -2 26 -10 -8 -39 -95 -82 -581 -282 -664 -343 -564 -411 23 -15 55 -19
232 -24 180 -4 211 -8 252 -26 53 -24 78 -62 78 -118 0 -31 -8 -45 -56 -90
-31 -30 -53 -59 -49 -65 17 -27 127 2 220 58 57 35 84 62 107 105 16 32 17 44
8 72 -29 88 -113 116 -375 124 -184 6 -190 7 -193 27 -4 30 73 95 223 189 245
152 321 205 335 231 14 24 13 28 -13 50 l-28 24 -323 0 c-237 0 -325 -3 -334
-12z"/>
</g>
</svg>
