<?xml version="1.0" standalone="no"?>
<!DOCTYPE svg PUBLIC "-//W3C//DTD SVG 20010904//EN"
 "http://www.w3.org/TR/2001/REC-SVG-20010904/DTD/svg10.dtd">
<svg version="1.0" xmlns="http://www.w3.org/2000/svg"
 width="35.000000pt" height="93.000000pt" viewBox="0 0 35.000000 93.000000"
 preserveAspectRatio="xMidYMid meet">
<metadata>
Created by potrace 1.10, written by Peter Selinger 2001-2011
</metadata>
<g transform="translate(0.000000,93.000000) scale(0.100000,-0.100000)"
fill="#000000" stroke="none">
<path d="M128 860 c-27 -28 -30 -36 -25 -73 6 -45 39 -82 82 -93 36 -9 98 19
106 47 26 92 -7 149 -86 149 -39 0 -52 -5 -77 -30z"/>
<path d="M128 639 c-31 -17 -38 -78 -37 -309 2 -290 0 -283 67 -294 31 -5 65
-5 85 0 l32 10 -4 224 c-2 145 1 248 8 288 16 83 8 92 -73 92 -33 0 -69 -5
-78 -11z"/>
</g>
</svg>
