<?xml version="1.0" standalone="no"?>
<!DOCTYPE svg PUBLIC "-//W3C//DTD SVG 20010904//EN"
 "http://www.w3.org/TR/2001/REC-SVG-20010904/DTD/svg10.dtd">
<svg version="1.0" xmlns="http://www.w3.org/2000/svg"
 width="53.000000pt" height="96.000000pt" viewBox="0 0 53.000000 96.000000"
 preserveAspectRatio="xMidYMid meet">
<metadata>
Created by potrace 1.10, written by Peter Selinger 2001-2011
</metadata>
<g transform="translate(0.000000,96.000000) scale(0.100000,-0.100000)"
fill="#000000" stroke="none">
<path d="M122 858 c-7 -7 -12 -33 -12 -60 0 -37 4 -50 19 -58 27 -14 88 -13
98 3 12 19 12 100 1 115 -13 15 -90 16 -106 0z"/>
<path d="M348 863 c-14 -4 -18 -15 -18 -57 0 -61 11 -76 60 -76 20 0 41 5 48
12 16 16 16 100 0 116 -12 12 -56 14 -90 5z"/>
<path d="M102 658 c-19 -19 5 -38 49 -38 l39 0 -2 -262 -3 -263 -45 -5 c-31
-3 -45 -10 -45 -20 0 -18 79 -27 256 -29 94 -1 119 2 129 14 18 22 2 35 -49
42 l-41 6 2 256 3 256 45 5 c37 4 45 9 45 25 0 19 -8 20 -185 23 -134 2 -189
-1 -198 -10z"/>
</g>
</svg>
