<?xml version="1.0" standalone="no"?>
<!DOCTYPE svg PUBLIC "-//W3C//DTD SVG 20010904//EN"
 "http://www.w3.org/TR/2001/REC-SVG-20010904/DTD/svg10.dtd">
<svg version="1.0" xmlns="http://www.w3.org/2000/svg"
 width="92.000000pt" height="96.000000pt" viewBox="0 0 92.000000 96.000000"
 preserveAspectRatio="xMidYMid meet">
<metadata>
Created by potrace 1.10, written by Peter Selinger 2001-2011
</metadata>
<g transform="translate(0.000000,96.000000) scale(0.100000,-0.100000)"
fill="#000000" stroke="none">
<path d="M427 884 c-21 -7 -61 -16 -88 -20 -27 -4 -53 -12 -58 -18 -6 -6 -11
-39 -13 -71 l-3 -60 -107 0 c-133 0 -139 -5 -109 -77 39 -93 82 -107 111 -38
13 32 55 60 90 60 19 0 20 -5 20 -204 0 -169 -3 -206 -15 -216 -12 -10 -13
-16 -4 -26 9 -11 43 -14 134 -14 134 0 158 9 130 46 -10 13 -14 45 -15 97 0
77 0 77 33 97 38 23 95 26 123 6 17 -13 19 -31 24 -203 6 -211 5 -210 79 -180
20 8 59 19 86 24 l50 8 3 169 2 169 -27 30 c-44 46 -80 59 -174 65 -78 4 -92
2 -143 -21 -31 -14 -56 -25 -57 -24 0 1 -3 41 -5 90 -4 82 -4 87 15 87 33 0
67 -20 84 -49 26 -44 53 -64 72 -53 21 11 69 128 61 148 -5 13 -23 14 -121 8
l-115 -7 0 85 c0 101 -7 112 -63 92z"/>
</g>
</svg>
