<?xml version="1.0" standalone="no"?>
<!DOCTYPE svg PUBLIC "-//W3C//DTD SVG 20010904//EN"
 "http://www.w3.org/TR/2001/REC-SVG-20010904/DTD/svg10.dtd">
<svg version="1.0" xmlns="http://www.w3.org/2000/svg"
 width="85.000000pt" height="91.000000pt" viewBox="0 0 85.000000 91.000000"
 preserveAspectRatio="xMidYMid meet">
<metadata>
Created by potrace 1.10, written by Peter Selinger 2001-2011
</metadata>
<g transform="translate(0.000000,91.000000) scale(0.100000,-0.100000)"
fill="#000000" stroke="none">
<path d="M625 858 c-58 -30 -182 -159 -250 -260 -32 -49 -63 -88 -68 -88 -9 0
-7 31 15 226 6 55 9 108 5 117 -5 14 -22 17 -100 17 -84 0 -96 -2 -115 -23
-33 -35 -45 -174 -40 -477 5 -325 0 -314 136 -318 81 -2 92 -1 101 17 7 13 8
66 1 168 -5 81 -10 154 -10 161 0 37 103 -24 150 -90 34 -46 65 -124 75 -188
13 -86 20 -90 149 -90 137 0 147 6 128 77 -37 137 -173 268 -354 340 -35 14
-65 27 -66 28 -2 2 14 27 36 57 101 135 189 173 262 111 45 -37 62 -23 76 60
6 36 19 85 29 108 19 40 19 42 0 55 -28 21 -113 17 -160 -8z"/>
</g>
</svg>
