<?xml version="1.0" standalone="no"?>
<!DOCTYPE svg PUBLIC "-//W3C//DTD SVG 20010904//EN"
 "http://www.w3.org/TR/2001/REC-SVG-20010904/DTD/svg10.dtd">
<svg version="1.0" xmlns="http://www.w3.org/2000/svg"
 width="74.000000pt" height="93.000000pt" viewBox="0 0 74.000000 93.000000"
 preserveAspectRatio="xMidYMid meet">
<metadata>
Created by potrace 1.10, written by Peter Selinger 2001-2011
</metadata>
<g transform="translate(0.000000,93.000000) scale(0.100000,-0.100000)"
fill="#000000" stroke="none">
<path d="M240 890 c-8 -5 -23 -11 -32 -14 -15 -4 -18 -17 -18 -66 0 -66 -23
-163 -74 -310 -55 -157 -77 -259 -79 -370 -2 -90 0 -103 17 -116 25 -18 86
-18 110 -1 17 13 17 19 4 120 -16 120 -11 200 24 339 16 63 25 85 33 78 6 -5
17 -60 24 -122 20 -175 48 -355 61 -377 13 -25 41 -41 73 -41 44 0 54 25 60
155 4 66 16 162 27 214 11 52 20 99 20 105 0 6 3 6 9 0 4 -5 13 -49 20 -99 26
-209 53 -318 86 -351 39 -39 125 -27 125 17 0 11 -12 71 -26 132 -42 183 -62
314 -75 503 -7 102 -17 182 -23 186 -15 11 -108 10 -125 -1 -10 -7 -13 -34
-12 -114 2 -80 -3 -123 -18 -174 -10 -37 -25 -101 -32 -141 -7 -40 -16 -75
-21 -78 -4 -3 -8 -2 -8 3 0 4 -5 51 -10 104 -5 54 -12 159 -15 235 -7 170 -8
174 -45 174 -16 0 -32 5 -35 10 -7 12 -24 12 -45 0z"/>
</g>
</svg>
