<?xml version="1.0" standalone="no"?>
<!DOCTYPE svg PUBLIC "-//W3C//DTD SVG 20010904//EN"
 "http://www.w3.org/TR/2001/REC-SVG-20010904/DTD/svg10.dtd">
<svg version="1.0" xmlns="http://www.w3.org/2000/svg"
 width="63.000000pt" height="92.000000pt" viewBox="0 0 63.000000 92.000000"
 preserveAspectRatio="xMidYMid meet">
<metadata>
Created by potrace 1.10, written by Peter Selinger 2001-2011
</metadata>
<g transform="translate(0.000000,92.000000) scale(0.100000,-0.100000)"
fill="#000000" stroke="none">
<path d="M115 890 c-3 -5 -14 -10 -25 -10 -36 0 -40 -48 -39 -429 1 -201 4
-376 8 -389 3 -13 18 -31 33 -39 23 -15 29 -15 44 -2 9 8 26 13 36 11 32 -6
48 16 43 57 -3 20 -7 136 -8 259 -2 161 0 222 9 222 6 0 48 -32 93 -71 l81
-70 0 -174 c0 -192 6 -218 53 -235 32 -11 93 -4 114 12 9 7 11 87 6 334 -5
247 -3 345 7 410 13 82 13 87 -5 100 -24 18 -115 18 -139 1 -21 -16 -36 -108
-36 -234 0 -56 -4 -93 -10 -93 -6 0 -44 25 -85 57 -83 63 -94 85 -76 163 15
64 13 96 -5 114 -17 18 -89 22 -99 6z"/>
</g>
</svg>
