<?xml version="1.0" standalone="no"?>
<!DOCTYPE svg PUBLIC "-//W3C//DTD SVG 20010904//EN"
 "http://www.w3.org/TR/2001/REC-SVG-20010904/DTD/svg10.dtd">
<svg version="1.0" xmlns="http://www.w3.org/2000/svg"
 width="67.000000pt" height="94.000000pt" viewBox="0 0 67.000000 94.000000"
 preserveAspectRatio="xMidYMid meet">
<metadata>
Created by potrace 1.10, written by Peter Selinger 2001-2011
</metadata>
<g transform="translate(0.000000,94.000000) scale(0.100000,-0.100000)"
fill="#000000" stroke="none">
<path d="M291 841 c-48 -51 -80 -102 -113 -186 -26 -64 -57 -183 -58 -215 0
-35 45 -174 78 -240 31 -63 131 -170 159 -170 10 0 39 21 65 47 76 80 132 198
163 348 19 87 19 110 0 180 -31 119 -81 200 -159 256 -57 42 -82 38 -135 -20z
m59 -180 c78 -63 124 -189 118 -323 -4 -86 -14 -102 -58 -91 -75 17 -132 84
-170 199 -25 75 -25 190 1 232 18 30 59 23 109 -17z"/>
</g>
</svg>
