<?xml version="1.0" standalone="no"?>
<!DOCTYPE svg PUBLIC "-//W3C//DTD SVG 20010904//EN"
 "http://www.w3.org/TR/2001/REC-SVG-20010904/DTD/svg10.dtd">
<svg version="1.0" xmlns="http://www.w3.org/2000/svg"
 width="86.000000pt" height="93.000000pt" viewBox="0 0 86.000000 93.000000"
 preserveAspectRatio="xMidYMid meet">
<metadata>
Created by potrace 1.10, written by Peter Selinger 2001-2011
</metadata>
<g id="az" class="az" transform="translate(0.000000,93.000000) scale(0.100000,-0.100000)"
fill="#000000" stroke="none">
<path d="M365 870 c-4 -6 -3 -35 0 -64 l7 -54 -92 -93 c-183 -186 -242 -283
-244 -399 0 -55 5 -77 29 -126 26 -51 38 -63 85 -87 44 -23 63 -27 98 -23 98
13 185 82 235 188 l33 70 18 -54 c10 -29 24 -80 32 -113 8 -32 20 -63 27 -67
7 -4 60 -8 120 -8 l107 0 0 25 c0 14 -22 92 -50 173 -48 142 -104 343 -151
545 l-24 97 -112 0 c-65 0 -114 -4 -118 -10z m61 -247 c38 -130 43 -150 49
-190 13 -84 -35 -154 -115 -168 -30 -5 -44 -3 -56 9 -8 9 -19 16 -24 16 -4 0
-13 14 -20 30 -17 41 -8 118 19 171 30 59 114 188 123 189 4 0 15 -26 24 -57z"/>
</g>
</svg>
