<?xml version="1.0" standalone="no"?>
<!DOCTYPE svg PUBLIC "-//W3C//DTD SVG 20010904//EN"
 "http://www.w3.org/TR/2001/REC-SVG-20010904/DTD/svg10.dtd">
<svg version="1.0" xmlns="http://www.w3.org/2000/svg"
 width="66.000000pt" height="90.000000pt" viewBox="0 0 66.000000 90.000000"
 preserveAspectRatio="xMidYMid meet">
<metadata>
Created by potrace 1.10, written by Peter Selinger 2001-2011
</metadata>
<g transform="translate(0.000000,90.000000) scale(0.100000,-0.100000)"
fill="#000000" stroke="none">
<path d="M179 863 c-15 -2 -37 -15 -50 -29 l-24 -26 -4 -330 c-3 -349 1 -429
25 -453 19 -19 123 -20 146 -3 13 11 14 24 6 93 -6 44 -11 210 -12 368 -1 246
1 289 14 297 8 6 49 9 90 8 l75 -3 -3 -285 c-4 -305 6 -466 29 -481 16 -10
109 -12 133 -3 14 5 15 40 10 307 -6 282 -2 367 22 479 4 19 0 32 -15 47 -20
20 -30 21 -218 20 -109 -1 -210 -4 -224 -6z"/>
</g>
</svg>
