<?xml version="1.0" standalone="no"?>
<!DOCTYPE svg PUBLIC "-//W3C//DTD SVG 20010904//EN"
 "http://www.w3.org/TR/2001/REC-SVG-20010904/DTD/svg10.dtd">
<svg version="1.0" xmlns="http://www.w3.org/2000/svg"
 width="87.000000pt" height="90.000000pt" viewBox="0 0 87.000000 90.000000"
 preserveAspectRatio="xMidYMid meet">
<metadata>
Created by potrace 1.10, written by Peter Selinger 2001-2011
</metadata>
<g transform="translate(0.000000,90.000000) scale(0.100000,-0.100000)"
fill="#000000" stroke="none">
<path d="M322 826 c-85 -42 -156 -108 -171 -162 -7 -24 -11 -150 -11 -316 l0
-278 -48 0 c-55 0 -92 -26 -70 -48 13 -13 449 -18 461 -5 4 3 0 15 -10 25 -11
13 -30 18 -65 18 l-48 0 0 133 0 133 49 48 50 49 50 -21 c101 -44 203 -23 271
54 45 51 60 93 60 162 0 49 -5 66 -29 99 -67 92 -185 143 -331 143 -77 0 -93
-3 -158 -34z m222 -52 c26 -26 35 -49 42 -106 7 -63 -10 -161 -32 -179 -8 -7
-37 -12 -63 -11 -44 1 -52 -3 -82 -36 l-33 -36 -8 34 c-11 49 1 248 18 290 8
19 22 41 31 48 24 18 108 15 127 -4z"/>
</g>
</svg>
