<?xml version="1.0" standalone="no"?>
<!DOCTYPE svg PUBLIC "-//W3C//DTD SVG 20010904//EN"
 "http://www.w3.org/TR/2001/REC-SVG-20010904/DTD/svg10.dtd">
<svg version="1.0" xmlns="http://www.w3.org/2000/svg"
 width="87.000000pt" height="89.000000pt" viewBox="0 0 87.000000 89.000000"
 preserveAspectRatio="xMidYMid meet">
<metadata>
Created by potrace 1.10, written by Peter Selinger 2001-2011
</metadata>
<g transform="translate(0.000000,89.000000) scale(0.100000,-0.100000)"
fill="#000000" stroke="none">
<path d="M400 882 c-129 -9 -223 -55 -299 -147 -54 -65 -75 -135 -69 -230 5
-82 32 -139 105 -226 71 -86 95 -129 102 -183 6 -47 9 -52 41 -63 45 -16 146
-7 224 19 127 42 243 146 272 245 12 40 22 57 40 63 26 10 32 38 12 58 -19 19
-312 17 -328 -3 -16 -19 -5 -45 21 -52 19 -5 21 -11 16 -60 -11 -108 -93 -219
-167 -225 l-33 -3 2 70 c1 43 -6 99 -19 145 -43 163 -53 223 -48 310 6 93 29
161 68 195 31 28 119 28 150 0 29 -26 50 -79 50 -126 0 -31 -4 -38 -22 -41
-17 -2 -23 -10 -23 -28 0 -21 6 -26 40 -32 22 -4 95 -7 161 -7 95 -1 124 2
134 14 17 21 8 48 -19 55 -15 3 -27 17 -35 41 -25 72 -95 146 -168 179 -49 21
-147 37 -208 32z"/>
</g>
</svg>
