<?xml version="1.0" standalone="no"?>
<!DOCTYPE svg PUBLIC "-//W3C//DTD SVG 20010904//EN"
 "http://www.w3.org/TR/2001/REC-SVG-20010904/DTD/svg10.dtd">
<svg version="1.0" xmlns="http://www.w3.org/2000/svg"
 width="93.000000pt" height="93.000000pt" viewBox="0 0 93.000000 93.000000"
 preserveAspectRatio="xMidYMid meet">
<metadata>
Created by potrace 1.10, written by Peter Selinger 2001-2011
</metadata>
<g transform="translate(0.000000,93.000000) scale(0.100000,-0.100000)"
fill="#000000" stroke="none">
<path d="M75 876 c-17 -25 -16 -29 8 -94 13 -37 28 -91 32 -120 5 -38 13 -55
27 -63 29 -16 44 4 66 81 34 122 48 137 135 139 l37 1 -2 -357 -3 -358 -40 -5
c-35 -4 -40 -8 -40 -30 l0 -25 176 -3 c148 -2 178 0 189 13 18 22 -3 43 -48
47 l-37 3 -3 353 -2 353 61 -3 62 -3 23 -45 c13 -25 31 -72 41 -104 30 -100
73 -100 87 2 3 26 18 80 33 120 40 111 62 104 -354 107 -191 1 -367 5 -389 9
-38 8 -43 6 -59 -18z"/>
</g>
</svg>
