<?xml version="1.0" standalone="no"?>
<!DOCTYPE svg PUBLIC "-//W3C//DTD SVG 20010904//EN"
 "http://www.w3.org/TR/2001/REC-SVG-20010904/DTD/svg10.dtd">
<svg version="1.0" xmlns="http://www.w3.org/2000/svg"
 width="94.000000pt" height="93.000000pt" viewBox="0 0 94.000000 93.000000"
 preserveAspectRatio="xMidYMid meet">
<metadata>
Created by potrace 1.10, written by Peter Selinger 2001-2011
</metadata>
<g transform="translate(0.000000,93.000000) scale(0.100000,-0.100000)"
fill="#000000" stroke="none">
<path d="M705 881 c-17 -10 -43 -32 -57 -49 -25 -30 -82 -163 -126 -297 -46
-137 -37 -144 -112 85 l-66 205 33 3 c38 4 52 24 33 47 -11 13 -40 15 -174 13
-153 -3 -161 -4 -161 -23 0 -11 11 -25 25 -32 19 -9 32 -34 57 -105 17 -51 59
-172 92 -268 33 -96 68 -181 78 -187 9 -7 34 -13 55 -13 43 0 42 5 27 -109
-14 -102 -7 -113 65 -109 l51 3 0 105 c0 100 1 105 22 108 45 7 57 62 13 62
-11 0 -20 3 -20 6 0 3 19 65 41 137 47 149 85 231 124 267 27 25 32 26 140 17
27 -2 30 1 38 43 15 75 14 83 -13 97 -38 19 -129 16 -165 -6z"/>
</g>
</svg>
