<?xml version="1.0" standalone="no"?>
<!DOCTYPE svg PUBLIC "-//W3C//DTD SVG 20010904//EN"
 "http://www.w3.org/TR/2001/REC-SVG-20010904/DTD/svg10.dtd">
<svg version="1.0" xmlns="http://www.w3.org/2000/svg"
 width="97.000000pt" height="93.000000pt" viewBox="0 0 97.000000 93.000000"
 preserveAspectRatio="xMidYMid meet">
<metadata>
Created by potrace 1.10, written by Peter Selinger 2001-2011
</metadata>
<g transform="translate(0.000000,93.000000) scale(0.100000,-0.100000)"
fill="#000000" stroke="none">
<path d="M725 880 c-22 -11 -70 -47 -107 -80 -75 -68 -67 -68 -155 -5 -32 23
-42 36 -40 55 l2 25 -165 0 c-139 0 -165 -2 -165 -15 0 -8 9 -16 20 -18 11 -1
30 -5 41 -7 22 -5 121 -74 184 -129 19 -17 48 -41 65 -52 l29 -22 -61 -65
c-110 -118 -148 -242 -105 -339 44 -99 139 -168 242 -176 53 -4 58 -2 118 43
75 56 155 145 182 200 25 53 26 124 0 179 -24 53 -95 133 -160 181 -57 42 -56
54 5 89 55 33 96 37 168 19 68 -17 73 -15 99 54 16 43 16 48 1 65 -24 26 -143
25 -198 -2z m-156 -355 c76 -71 111 -139 111 -216 0 -32 -5 -70 -12 -85 -12
-25 -15 -26 -75 -21 -77 6 -162 45 -184 84 -25 44 -31 104 -14 159 18 60 70
134 95 134 11 0 46 -25 79 -55z"/>
</g>
</svg>
