<?xml version="1.0" standalone="no"?>
<!DOCTYPE svg PUBLIC "-//W3C//DTD SVG 20010904//EN"
 "http://www.w3.org/TR/2001/REC-SVG-20010904/DTD/svg10.dtd">
<svg version="1.0" xmlns="http://www.w3.org/2000/svg"
 width="86.000000pt" height="93.000000pt" viewBox="0 0 86.000000 93.000000"
 preserveAspectRatio="xMidYMid meet">
<metadata>
Created by potrace 1.10, written by Peter Selinger 2001-2011
</metadata>
<g transform="translate(0.000000,93.000000) scale(0.100000,-0.100000)"
fill="#000000" stroke="none">
<path d="M345 866 c-25 -18 -13 -43 27 -54 l32 -8 -120 -120 c-75 -75 -130
-139 -148 -173 -66 -123 -38 -265 64 -331 44 -28 56 -31 102 -27 29 2 63 8 76
12 21 7 22 5 22 -38 0 -44 -1 -46 -32 -49 -28 -2 -33 -7 -33 -28 l0 -25 135 0
135 0 0 25 c0 20 -6 26 -30 30 -27 4 -30 10 -33 44 l-3 38 33 -6 c81 -17 99
-17 135 -6 44 14 85 50 116 100 18 29 22 50 21 115 0 122 -28 172 -176 315
-65 64 -118 118 -118 122 0 4 12 8 26 10 35 4 53 31 35 52 -18 21 -237 23
-266 2z m55 -391 l0 -245 -32 0 c-73 1 -112 68 -112 190 -1 71 4 94 26 143 27
58 96 156 111 157 4 0 7 -110 7 -245z m245 110 c35 -70 48 -147 35 -212 -18
-102 -52 -143 -115 -143 l-25 0 0 248 1 247 39 -45 c22 -25 51 -67 65 -95z"/>
</g>
</svg>
