<?xml version="1.0" standalone="no"?>
<!DOCTYPE svg PUBLIC "-//W3C//DTD SVG 20010904//EN"
 "http://www.w3.org/TR/2001/REC-SVG-20010904/DTD/svg10.dtd">
<svg version="1.0" xmlns="http://www.w3.org/2000/svg"
 width="90.000000pt" height="90.000000pt" viewBox="0 0 90.000000 90.000000"
 preserveAspectRatio="xMidYMid meet">
<metadata>
Created by potrace 1.10, written by Peter Selinger 2001-2011
</metadata>
<g transform="translate(0.000000,90.000000) scale(0.100000,-0.100000)"
fill="#000000" stroke="none">
<path d="M645 868 c-60 -21 -92 -56 -137 -148 -23 -49 -46 -90 -50 -90 -3 0
-29 37 -57 83 l-51 82 37 5 c38 5 56 31 36 51 -13 13 -353 13 -367 -1 -17 -17
6 -44 44 -50 25 -4 37 -14 55 -47 12 -24 27 -48 32 -55 6 -7 22 -33 35 -58 14
-25 42 -73 62 -107 20 -34 36 -69 36 -79 0 -28 -135 -295 -165 -326 -14 -15
-38 -30 -53 -34 -46 -10 -52 -13 -59 -30 -13 -34 24 -44 153 -44 99 0 124 3
135 16 19 23 -1 48 -40 52 -38 4 -40 23 -12 100 19 50 88 182 96 182 4 0 165
-265 165 -273 0 -2 -19 -7 -41 -10 -51 -7 -68 -21 -53 -45 10 -15 35 -17 216
-20 173 -2 207 0 218 13 23 28 4 45 -48 45 -47 0 -50 1 -79 48 -28 45 -89 148
-130 222 -11 19 -41 70 -67 112 l-47 77 35 70 c53 105 95 123 182 80 53 -27
70 -21 79 27 4 21 13 51 21 67 24 45 15 70 -31 83 -49 15 -110 16 -150 2z"/>
</g>
</svg>
