<?xml version="1.0" standalone="no"?>
<!DOCTYPE svg PUBLIC "-//W3C//DTD SVG 20010904//EN"
 "http://www.w3.org/TR/2001/REC-SVG-20010904/DTD/svg10.dtd">
<svg version="1.0" xmlns="http://www.w3.org/2000/svg"
 width="94.000000pt" height="91.000000pt" viewBox="0 0 94.000000 91.000000"
 preserveAspectRatio="xMidYMid meet">
<metadata>
Created by potrace 1.10, written by Peter Selinger 2001-2011
</metadata>
<g transform="translate(0.000000,91.000000) scale(0.100000,-0.100000)"
fill="#000000" stroke="none">
<path d="M80 861 c-20 -5 -26 -14 -28 -43 -2 -21 2 -47 8 -58 10 -19 19 -21
93 -18 81 3 82 3 85 31 3 27 4 27 75 27 71 0 73 0 84 -30 11 -30 12 -30 87
-30 72 0 77 2 88 25 6 14 18 26 27 26 16 1 73 1 101 0 8 -1 20 -11 25 -23 9
-20 18 -23 83 -26 89 -4 102 5 102 64 0 33 -5 46 -19 54 -22 11 -769 13 -811
1z"/>
<path d="M79 650 c-27 -16 -30 -53 -19 -187 12 -136 29 -200 66 -250 13 -17
24 -36 24 -41 0 -5 31 -39 69 -75 65 -63 91 -76 117 -59 17 11 80 95 100 133
l17 33 46 -54 c70 -84 120 -130 141 -130 20 0 101 87 126 136 9 16 21 36 28
44 44 50 126 302 126 385 0 61 -20 75 -107 75 -55 0 -73 -4 -86 -18 -24 -26
-21 -43 16 -114 43 -83 43 -156 3 -241 -16 -31 -34 -57 -40 -57 -22 0 -77 60
-99 107 -17 38 -22 75 -27 171 -6 144 -11 152 -98 152 -91 0 -92 -2 -92 -145
0 -68 5 -146 12 -173 9 -40 8 -57 -2 -81 -16 -40 -41 -40 -79 1 -49 52 -72
128 -78 253 -7 135 -13 145 -92 145 -31 0 -63 -5 -72 -10z"/>
</g>
</svg>
