<?xml version="1.0" standalone="no"?>
<!DOCTYPE svg PUBLIC "-//W3C//DTD SVG 20010904//EN"
 "http://www.w3.org/TR/2001/REC-SVG-20010904/DTD/svg10.dtd">
<svg version="1.0" xmlns="http://www.w3.org/2000/svg"
 width="92.000000pt" height="93.000000pt" viewBox="0 0 92.000000 93.000000"
 preserveAspectRatio="xMidYMid meet">
<metadata>
Created by potrace 1.10, written by Peter Selinger 2001-2011
</metadata>
<g transform="translate(0.000000,93.000000) scale(0.100000,-0.100000)"
fill="#000000" stroke="none">
<path d="M103 893 c-32 -12 -6 -43 37 -43 24 0 26 -15 22 -297 l-4 -243 -23 0
c-33 0 -59 -28 -44 -46 9 -11 64 -14 291 -14 342 0 327 5 363 -114 14 -46 34
-91 44 -100 17 -16 19 -15 33 6 8 13 21 47 28 77 7 30 19 66 26 80 19 36 17
75 -4 94 -14 13 -38 17 -90 17 l-72 0 0 265 0 265 34 0 c19 0 39 7 47 16 11
14 10 18 -6 30 -26 20 -287 20 -304 1 -14 -18 5 -37 36 -37 l23 0 0 -270 0
-270 -110 0 -110 0 0 270 c0 259 1 270 19 270 46 0 70 31 35 44 -19 7 -253 7
-271 -1z"/>
</g>
</svg>
