<?xml version="1.0" standalone="no"?>
<!DOCTYPE svg PUBLIC "-//W3C//DTD SVG 20010904//EN"
 "http://www.w3.org/TR/2001/REC-SVG-20010904/DTD/svg10.dtd">
<svg version="1.0" xmlns="http://www.w3.org/2000/svg"
 width="90.000000pt" height="94.000000pt" viewBox="0 0 90.000000 94.000000"
 preserveAspectRatio="xMidYMid meet">
<metadata>
Created by potrace 1.10, written by Peter Selinger 2001-2011
</metadata>
<g transform="translate(0.000000,94.000000) scale(0.100000,-0.100000)"
fill="#000000" stroke="none">
<path d="M51 881 c-8 -14 -6 -22 8 -35 9 -9 24 -16 32 -16 10 0 19 -20 28 -62
7 -34 22 -81 33 -104 27 -58 109 -138 169 -165 l49 -23 0 -183 0 -183 -24 -10
c-32 -12 -41 -28 -26 -45 19 -23 262 -21 281 1 11 14 10 19 -11 35 -14 11 -31
24 -38 29 -12 11 -16 211 -6 310 5 43 8 46 52 64 73 30 162 126 190 206 12 36
22 75 22 87 0 15 11 27 38 40 43 21 47 42 12 60 -35 19 -260 14 -284 -6 -15
-13 -15 -15 0 -32 10 -11 24 -19 32 -19 12 0 14 -13 10 -73 -5 -75 -38 -156
-79 -193 -31 -28 -83 -34 -127 -14 -49 22 -89 96 -102 191 -13 87 -13 89 10
89 25 0 41 30 29 53 -9 15 -28 17 -149 17 -126 0 -140 -2 -149 -19z"/>
<path d="M886 422 c-2 -4 -1 -14 5 -22 7 -12 9 -10 9 8 0 23 -5 28 -14 14z"/>
</g>
</svg>
