<?xml version="1.0" standalone="no"?>
<!DOCTYPE svg PUBLIC "-//W3C//DTD SVG 20010904//EN"
 "http://www.w3.org/TR/2001/REC-SVG-20010904/DTD/svg10.dtd">
<svg version="1.0" xmlns="http://www.w3.org/2000/svg"
 width="81.000000pt" height="79.000000pt" viewBox="0 0 81.000000 79.000000"
 preserveAspectRatio="xMidYMid meet">
<metadata>
Created by potrace 1.10, written by Peter Selinger 2001-2011
</metadata>
<g transform="translate(0.000000,79.000000) scale(0.100000,-0.100000)"
fill="#000000" stroke="none">
<path d="M361 731 c-26 -26 -33 -117 -29 -394 l3 -227 -66 0 -66 0 -6 180 c-3
99 -1 237 4 307 5 73 6 130 1 135 -5 5 -31 8 -58 6 -74 -5 -74 -4 -74 -348 0
-252 2 -299 16 -318 15 -22 16 -22 323 -22 249 0 311 3 320 14 8 10 8 64 1
207 -8 141 -8 229 0 322 14 151 11 157 -61 157 -74 0 -74 2 -76 -335 -1 -160
-2 -293 -3 -297 0 -11 -92 -9 -110 2 -12 7 -15 47 -18 212 -2 112 1 244 6 293
9 77 8 92 -5 108 -21 23 -78 22 -102 -2z"/>
</g>
</svg>
