<?xml version="1.0" standalone="no"?>
<!DOCTYPE svg PUBLIC "-//W3C//DTD SVG 20010904//EN"
 "http://www.w3.org/TR/2001/REC-SVG-20010904/DTD/svg10.dtd">
<svg version="1.0" xmlns="http://www.w3.org/2000/svg"
 width="86.000000pt" height="93.000000pt" viewBox="0 0 86.000000 93.000000"
 preserveAspectRatio="xMidYMid meet">
<metadata>
Created by potrace 1.10, written by Peter Selinger 2001-2011
</metadata>
<g transform="translate(0.000000,93.000000) scale(0.100000,-0.100000)"
fill="#000000" stroke="none">
<path d="M62 857 c-7 -8 -7 -18 -2 -27 6 -8 10 -137 10 -286 0 -218 -3 -274
-14 -290 -13 -17 -12 -21 1 -36 14 -16 35 -18 155 -18 l138 0 0 -84 c0 -47 4
-87 9 -90 10 -6 117 30 138 47 7 5 13 31 13 57 0 29 6 52 14 59 10 8 56 12
146 10 110 -2 134 1 147 14 15 15 15 18 -2 37 -17 18 -17 37 -10 305 5 219 4
289 -5 300 -17 20 -139 21 -166 1 -16 -13 -17 -18 -6 -35 14 -24 15 -128 5
-388 l-6 -173 -59 0 -59 0 7 290 c5 228 4 293 -6 305 -18 21 -142 21 -160 0
-11 -13 -11 -20 0 -40 10 -19 12 -60 7 -172 -4 -81 -7 -201 -7 -266 l0 -118
-57 3 -58 3 0 286 c0 228 -3 289 -14 302 -17 21 -143 24 -159 4z"/>
</g>
</svg>
