<?xml version="1.0" standalone="no"?>
<!DOCTYPE svg PUBLIC "-//W3C//DTD SVG 20010904//EN"
 "http://www.w3.org/TR/2001/REC-SVG-20010904/DTD/svg10.dtd">
<svg version="1.0" xmlns="http://www.w3.org/2000/svg"
 width="95.000000pt" height="93.000000pt" viewBox="0 0 95.000000 93.000000"
 preserveAspectRatio="xMidYMid meet">
<metadata>
Created by potrace 1.10, written by Peter Selinger 2001-2011
</metadata>
<g transform="translate(0.000000,93.000000) scale(0.100000,-0.100000)"
fill="#000000" stroke="none">
<path d="M81 854 c-27 -35 -26 -57 5 -124 15 -30 37 -86 49 -125 25 -76 44
-97 72 -79 14 9 18 27 20 91 1 44 7 92 13 107 12 31 62 56 115 56 l36 0 -6
-82 c-4 -46 -8 -207 -8 -359 -2 -259 -1 -278 17 -298 18 -20 28 -21 248 -21
219 0 229 1 249 21 20 20 21 29 15 95 -7 93 -47 182 -109 245 -55 57 -107 84
-187 100 l-62 12 7 121 c4 67 11 141 16 165 8 33 7 47 -3 57 -9 7 -73 14 -188
18 -96 4 -193 11 -215 16 -57 14 -61 13 -84 -16z m537 -491 c51 -33 79 -94 88
-190 6 -67 6 -70 -17 -76 -13 -3 -49 -4 -81 0 l-58 6 0 143 c0 162 0 161 68
117z"/>
</g>
</svg>
