<?xml version="1.0" standalone="no"?>
<!DOCTYPE svg PUBLIC "-//W3C//DTD SVG 20010904//EN"
 "http://www.w3.org/TR/2001/REC-SVG-20010904/DTD/svg10.dtd">
<svg version="1.0" xmlns="http://www.w3.org/2000/svg"
 width="96.000000pt" height="96.000000pt" viewBox="0 0 96.000000 96.000000"
 preserveAspectRatio="xMidYMid meet">
<metadata>
Created by potrace 1.10, written by Peter Selinger 2001-2011
</metadata>
<g transform="translate(0.000000,96.000000) scale(0.100000,-0.100000)"
fill="#000000" stroke="none">
<path d="M60 880 c-16 -16 -20 -29 -16 -48 3 -15 11 -58 17 -97 17 -102 23
-120 44 -120 14 0 22 15 35 64 20 71 48 115 76 119 18 3 19 -8 16 -335 -2
-221 -7 -348 -14 -367 -21 -52 -2 -57 237 -54 l210 3 -1 96 c-2 110 -18 169
-69 250 l-34 54 62 7 c103 11 97 21 97 -168 0 -135 -3 -169 -16 -189 -13 -21
-14 -28 -4 -40 10 -13 32 -15 104 -13 80 3 91 5 94 22 2 10 -2 29 -8 42 -10
18 -12 107 -7 388 4 306 3 367 -9 377 -18 14 -149 8 -166 -9 -9 -9 -9 -17 0
-37 7 -16 12 -80 12 -166 l0 -139 -162 2 -163 3 -3 164 c-1 92 -7 170 -13 177
-6 8 -54 13 -137 16 -70 3 -135 8 -144 12 -11 5 -24 0 -38 -14z m387 -469 c24
-31 51 -137 54 -216 l4 -80 -55 0 -55 0 -3 168 -2 168 22 -12 c13 -7 29 -19
35 -28z"/>
</g>
</svg>
