<?xml version="1.0" standalone="no"?>
<!DOCTYPE svg PUBLIC "-//W3C//DTD SVG 20010904//EN"
 "http://www.w3.org/TR/2001/REC-SVG-20010904/DTD/svg10.dtd">
<svg version="1.0" xmlns="http://www.w3.org/2000/svg"
 width="92.000000pt" height="93.000000pt" viewBox="0 0 92.000000 93.000000"
 preserveAspectRatio="xMidYMid meet">
<metadata>
Created by potrace 1.10, written by Peter Selinger 2001-2011
</metadata>
<g transform="translate(0.000000,93.000000) scale(0.100000,-0.100000)"
fill="#000000" stroke="none">
<path d="M460 874 c-19 -8 -55 -19 -79 -25 -67 -15 -71 -21 -71 -112 l0 -80
-118 6 c-144 8 -165 0 -144 -55 8 -18 19 -53 26 -78 33 -116 62 -119 115 -9
25 50 41 63 89 74 l32 7 0 -249 c0 -203 -3 -252 -15 -270 -11 -16 -12 -23 -2
-31 7 -6 134 -13 304 -17 l292 -8 10 26 c12 32 -1 122 -24 167 -24 47 -83 108
-129 135 -51 29 -160 65 -198 65 l-28 0 0 85 c0 77 2 85 19 85 45 0 71 -20
100 -78 35 -69 56 -90 78 -76 15 9 71 162 72 196 1 28 -34 40 -97 33 -100 -11
-146 -13 -159 -8 -9 4 -13 33 -13 108 0 119 -7 131 -60 109z m145 -550 c46
-35 85 -125 85 -196 l0 -28 -85 0 -85 0 0 123 c0 68 3 126 6 129 9 10 47 -4
79 -28z"/>
</g>
</svg>
