<?xml version="1.0" standalone="no"?>
<!DOCTYPE svg PUBLIC "-//W3C//DTD SVG 20010904//EN"
 "http://www.w3.org/TR/2001/REC-SVG-20010904/DTD/svg10.dtd">
<svg version="1.0" xmlns="http://www.w3.org/2000/svg"
 width="85.000000pt" height="90.000000pt" viewBox="0 0 85.000000 90.000000"
 preserveAspectRatio="xMidYMid meet">
<metadata>
Created by potrace 1.10, written by Peter Selinger 2001-2011
</metadata>
<g transform="translate(0.000000,90.000000) scale(0.100000,-0.100000)"
fill="#000000" stroke="none">
<path d="M530 854 c-71 -60 -148 -203 -165 -306 l-6 -38 -64 0 c-35 0 -66 4
-69 9 -3 5 -1 72 6 149 13 170 12 172 -74 172 -49 0 -63 -4 -82 -23 -21 -21
-25 -37 -31 -133 -4 -60 -5 -207 -2 -327 7 -269 6 -267 107 -267 56 0 71 3 79
17 5 11 6 76 2 163 -5 80 -5 148 -2 152 4 4 31 10 62 14 l56 6 7 -53 c15 -115
69 -231 142 -305 89 -88 155 -63 248 96 134 229 126 464 -22 622 -78 84 -135
99 -192 52z m64 -201 c71 -50 126 -184 126 -304 0 -83 -12 -109 -50 -109 -132
0 -252 222 -211 387 7 26 17 53 22 60 14 16 63 1 113 -34z"/>
</g>
</svg>
