<?xml version="1.0" standalone="no"?>
<!DOCTYPE svg PUBLIC "-//W3C//DTD SVG 20010904//EN"
 "http://www.w3.org/TR/2001/REC-SVG-20010904/DTD/svg10.dtd">
<svg version="1.0" xmlns="http://www.w3.org/2000/svg"
 width="89.000000pt" height="93.000000pt" viewBox="0 0 89.000000 93.000000"
 preserveAspectRatio="xMidYMid meet">
<metadata>
Created by potrace 1.10, written by Peter Selinger 2001-2011
</metadata>
<g transform="translate(0.000000,93.000000) scale(0.100000,-0.100000)"
fill="#000000" stroke="none">
<path d="M101 846 c-19 -23 -30 -191 -30 -456 0 -334 6 -355 103 -354 92 0 90
-4 80 234 -9 210 -8 370 1 428 l6 32 129 0 c71 0 131 -4 134 -8 2 -4 -29 -63
-69 -131 -139 -230 -171 -362 -120 -484 16 -38 55 -74 90 -83 61 -15 142 64
187 181 l22 60 18 -80 c34 -153 25 -139 102 -148 100 -11 109 1 81 111 -46
182 -90 399 -120 587 -9 55 -21 105 -27 112 -13 16 -121 18 -149 3 -10 -6 -19
-17 -19 -24 0 -19 -32 -26 -121 -26 -106 0 -137 7 -141 34 -3 19 -10 21 -74
24 -54 2 -74 -1 -83 -12z m498 -409 c15 -109 -21 -187 -87 -187 -92 0 -95 118
-7 315 43 97 47 98 67 14 10 -41 22 -105 27 -142z"/>
</g>
</svg>
