<?xml version="1.0" standalone="no"?>
<!DOCTYPE svg PUBLIC "-//W3C//DTD SVG 20010904//EN"
 "http://www.w3.org/TR/2001/REC-SVG-20010904/DTD/svg10.dtd">
<svg version="1.0" xmlns="http://www.w3.org/2000/svg"
 width="87.000000pt" height="90.000000pt" viewBox="0 0 87.000000 90.000000"
 preserveAspectRatio="xMidYMid meet">
<metadata>
Created by potrace 1.10, written by Peter Selinger 2001-2011
</metadata>
<g transform="translate(0.000000,90.000000) scale(0.100000,-0.100000)"
fill="#000000" stroke="none">
<path d="M710 853 c-52 -10 -147 -61 -206 -111 -69 -57 -118 -140 -130 -218
l-6 -44 -51 0 -50 0 8 118 c5 64 9 142 9 172 l1 55 -90 0 -90 0 -20 -40 c-19
-37 -20 -60 -20 -350 0 -295 1 -312 21 -345 20 -35 21 -35 98 -38 102 -4 110
3 102 83 -4 33 -9 106 -12 163 l-6 102 50 0 50 0 7 -46 c17 -116 96 -213 226
-276 75 -37 186 -65 214 -55 8 4 15 18 15 32 0 19 -8 28 -36 40 -89 37 -143
108 -165 218 -17 84 -15 86 93 89 l93 3 0 35 0 35 -99 3 -99 3 7 56 c13 112
57 178 159 240 45 27 57 40 55 57 -3 18 -10 21 -53 22 -27 1 -61 0 -75 -3z"/>
</g>
</svg>
