<?xml version="1.0" standalone="no"?>
<!DOCTYPE svg PUBLIC "-//W3C//DTD SVG 20010904//EN"
 "http://www.w3.org/TR/2001/REC-SVG-20010904/DTD/svg10.dtd">
<svg version="1.0" xmlns="http://www.w3.org/2000/svg"
 width="82.000000pt" height="93.000000pt" viewBox="0 0 82.000000 93.000000"
 preserveAspectRatio="xMidYMid meet">
<metadata>
Created by potrace 1.10, written by Peter Selinger 2001-2011
</metadata>
<g transform="translate(0.000000,93.000000) scale(0.100000,-0.100000)"
fill="#000000" stroke="none">
<path d="M163 881 c-120 -10 -122 -19 -125 -447 -2 -291 -1 -333 14 -360 l17
-31 293 -6 c169 -4 310 -3 333 3 24 5 51 21 68 40 22 25 27 39 27 83 -1 136
-128 260 -333 323 -31 10 -57 21 -57 25 0 4 12 10 27 14 41 10 174 73 197 93
43 39 76 104 76 155 0 108 -23 117 -272 115 -106 -1 -225 -4 -265 -7z m278
-87 c35 -32 15 -120 -39 -178 -30 -32 -96 -65 -129 -66 -22 0 -23 4 -23 74 0
40 3 101 7 136 l6 63 80 -6 c54 -5 86 -12 98 -23z m-69 -350 c51 -26 117 -104
137 -163 16 -48 14 -113 -4 -138 -17 -24 -50 -31 -176 -35 l-76 -3 -6 107 c-4
59 -4 143 0 187 l6 79 36 -5 c20 -3 57 -16 83 -29z"/>
</g>
</svg>
