<?xml version="1.0" standalone="no"?>
<!DOCTYPE svg PUBLIC "-//W3C//DTD SVG 20010904//EN"
 "http://www.w3.org/TR/2001/REC-SVG-20010904/DTD/svg10.dtd">
<svg version="1.0" xmlns="http://www.w3.org/2000/svg"
 width="85.000000pt" height="93.000000pt" viewBox="0 0 85.000000 93.000000"
 preserveAspectRatio="xMidYMid meet">
<metadata>
Created by potrace 1.10, written by Peter Selinger 2001-2011
</metadata>
<g transform="translate(0.000000,93.000000) scale(0.100000,-0.100000)"
fill="#000000" stroke="none">
<path d="M67 862 c-14 -15 -17 -42 -17 -158 0 -200 26 -335 91 -469 46 -95
112 -190 134 -193 26 -3 70 51 123 150 l41 78 52 -100 c28 -54 62 -109 74
-120 l22 -21 33 38 c46 52 134 240 161 343 19 73 23 112 23 270 l1 185 -73 3
c-42 2 -79 -2 -87 -8 -15 -12 -8 -54 30 -193 39 -143 30 -310 -21 -410 -19
-37 -33 -26 -68 53 -41 92 -66 225 -74 399 l-7 156 -67 3 c-89 4 -92 -2 -83
-162 5 -103 34 -294 50 -338 6 -15 -56 -140 -72 -145 -6 -2 -19 11 -30 29 -69
120 -103 272 -103 467 0 93 -4 141 -12 149 -19 19 -102 15 -121 -6z"/>
</g>
</svg>
