<?xml version="1.0" standalone="no"?>
<!DOCTYPE svg PUBLIC "-//W3C//DTD SVG 20010904//EN"
 "http://www.w3.org/TR/2001/REC-SVG-20010904/DTD/svg10.dtd">
<svg version="1.0" xmlns="http://www.w3.org/2000/svg"
 width="94.000000pt" height="93.000000pt" viewBox="0 0 94.000000 93.000000"
 preserveAspectRatio="xMidYMid meet">
<metadata>
Created by potrace 1.10, written by Peter Selinger 2001-2011
</metadata>
<g transform="translate(0.000000,93.000000) scale(0.100000,-0.100000)"
fill="#000000" stroke="none">
<path d="M447 873 c-4 -3 -7 -22 -7 -42 0 -96 -37 -168 -147 -285 -46 -49 -89
-99 -96 -111 -6 -13 -25 -44 -42 -71 -56 -91 -98 -308 -64 -330 6 -3 191 -6
411 -6 303 1 404 4 415 14 12 10 14 26 8 83 -15 160 -70 293 -210 506 -51 77
-93 153 -100 180 -7 26 -16 52 -19 58 -8 12 -138 16 -149 4z m87 -265 l54
-103 -39 -175 c-22 -96 -42 -182 -45 -190 -5 -13 -48 108 -104 293 l-24 77 41
83 c23 45 43 90 47 100 3 9 8 17 10 17 3 0 29 -46 60 -102z m-153 -356 c22
-73 39 -138 39 -143 0 -5 -35 -9 -79 -9 l-79 0 -1 100 c-1 56 2 100 7 100 6 0
13 16 17 36 3 21 14 48 22 61 15 22 17 23 26 7 5 -10 27 -78 48 -152z m318 23
c11 -33 23 -84 26 -112 l7 -53 -77 0 c-75 0 -77 1 -72 23 3 12 17 75 32 140
l27 119 19 -29 c10 -15 28 -55 38 -88z"/>
</g>
</svg>
