<?xml version="1.0" standalone="no"?>
<!DOCTYPE svg PUBLIC "-//W3C//DTD SVG 20010904//EN"
 "http://www.w3.org/TR/2001/REC-SVG-20010904/DTD/svg10.dtd">
<svg version="1.0" xmlns="http://www.w3.org/2000/svg"
 width="95.000000pt" height="91.000000pt" viewBox="0 0 95.000000 91.000000"
 preserveAspectRatio="xMidYMid meet">
<metadata>
Created by potrace 1.10, written by Peter Selinger 2001-2011
</metadata>
<g transform="translate(0.000000,91.000000) scale(0.100000,-0.100000)"
fill="#000000" stroke="none">
<path d="M207 862 c-10 -10 -17 -27 -17 -36 0 -20 123 -211 144 -223 20 -12
48 -61 42 -72 -4 -6 -23 -13 -43 -17 -75 -14 -176 -138 -233 -285 -32 -83 -40
-175 -18 -197 7 -7 41 -12 85 -12 89 0 90 1 102 147 10 123 29 188 74 255 54
81 63 69 70 -89 4 -75 7 -168 7 -208 0 -42 5 -76 12 -83 15 -15 120 -16 134
-2 7 7 9 83 6 220 -5 235 -4 237 57 172 46 -48 69 -118 82 -252 16 -163 11
-154 101 -158 70 -3 78 -1 89 19 27 51 -20 215 -94 326 -48 73 -96 117 -165
152 -23 12 -42 23 -42 26 0 2 34 43 75 90 109 125 125 149 125 181 -1 65 1 64
-302 64 -254 0 -276 -1 -291 -18z m382 -59 c101 -7 116 -16 84 -56 -10 -13
-44 -58 -77 -101 -32 -42 -62 -76 -67 -76 -4 0 -29 33 -55 73 -26 39 -50 74
-54 77 -4 3 -10 15 -14 28 -4 12 -12 22 -17 22 -5 0 -9 9 -9 20 0 18 7 20 58
20 33 0 101 -3 151 -7z"/>
</g>
</svg>
