<?xml version="1.0" standalone="no"?>
<!DOCTYPE svg PUBLIC "-//W3C//DTD SVG 20010904//EN"
 "http://www.w3.org/TR/2001/REC-SVG-20010904/DTD/svg10.dtd">
<svg version="1.0" xmlns="http://www.w3.org/2000/svg"
 width="90.000000pt" height="93.000000pt" viewBox="0 0 90.000000 93.000000"
 preserveAspectRatio="xMidYMid meet">
<metadata>
Created by potrace 1.10, written by Peter Selinger 2001-2011
</metadata>
<g transform="translate(0.000000,93.000000) scale(0.100000,-0.100000)"
fill="#000000" stroke="none">
<path d="M75 878 c-23 -71 -41 -445 -30 -662 6 -139 10 -161 27 -178 16 -16
29 -19 60 -15 72 10 71 8 63 219 l-7 188 67 0 c75 0 72 7 40 -80 -52 -140 -72
-301 -39 -314 23 -9 112 -7 118 2 3 5 10 63 15 129 12 138 30 223 45 223 6 0
19 -7 29 -14 15 -11 17 -32 17 -152 0 -91 5 -147 13 -164 16 -32 54 -45 90
-31 l27 11 0 164 c0 144 2 165 17 170 9 4 20 3 25 -2 13 -13 48 -162 55 -237
10 -111 12 -115 81 -115 68 0 82 11 82 62 0 109 -49 265 -162 523 -44 99 -82
196 -85 215 -7 46 -30 70 -65 70 -57 0 -66 -12 -65 -92 1 -85 -23 -152 -85
-236 l-39 -52 -89 0 -90 0 1 83 c0 45 4 123 8 172 10 116 5 125 -65 125 -35 0
-56 -5 -59 -12z m471 -240 c3 -18 22 -66 40 -106 l33 -73 -36 -15 c-42 -18
-108 -11 -122 13 -5 11 0 37 16 77 14 34 30 78 35 99 13 46 24 47 34 5z"/>
</g>
</svg>
