<?xml version="1.0" standalone="no"?>
<!DOCTYPE svg PUBLIC "-//W3C//DTD SVG 20010904//EN"
 "http://www.w3.org/TR/2001/REC-SVG-20010904/DTD/svg10.dtd">
<svg version="1.0" xmlns="http://www.w3.org/2000/svg"
 width="87.000000pt" height="92.000000pt" viewBox="0 0 87.000000 92.000000"
 preserveAspectRatio="xMidYMid meet">
<metadata>
Created by potrace 1.10, written by Peter Selinger 2001-2011
</metadata>
<g transform="translate(0.000000,92.000000) scale(0.100000,-0.100000)"
fill="#000000" stroke="none">
<path d="M48 858 c-10 -18 -14 -110 -16 -389 -4 -436 -4 -439 75 -439 27 0 54
5 61 12 9 9 10 70 5 245 l-6 233 59 2 c62 2 177 -2 182 -7 1 -1 -23 -29 -54
-61 -83 -87 -134 -170 -134 -218 0 -12 -4 -26 -10 -32 -16 -16 -25 -151 -10
-169 15 -18 125 -21 135 -4 4 5 8 63 10 127 3 134 20 198 67 263 l33 44 5
-201 c6 -228 7 -234 75 -234 67 0 68 3 60 225 -5 123 -4 195 2 195 17 0 50
-44 66 -90 19 -53 37 -178 37 -259 0 -31 5 -62 12 -69 18 -18 113 -15 128 3
18 22 7 145 -21 225 -29 85 -89 180 -146 230 -25 22 -50 40 -54 40 -19 0 -6
26 55 114 63 91 106 166 106 186 0 5 -9 19 -20 30 -19 19 -33 20 -218 20 -204
0 -210 -1 -241 -42 -11 -15 -10 -22 7 -45 29 -41 102 -180 102 -194 0 -8 -27
-10 -98 -7 -144 8 -134 -3 -130 152 l3 131 -57 3 c-50 3 -58 0 -70 -20z m622
-82 c0 -29 -108 -198 -124 -193 -12 4 -105 184 -106 205 0 9 30 12 115 12 114
0 115 0 115 -24z"/>
</g>
</svg>
