<?xml version="1.0" standalone="no"?>
<!DOCTYPE svg PUBLIC "-//W3C//DTD SVG 20010904//EN"
 "http://www.w3.org/TR/2001/REC-SVG-20010904/DTD/svg10.dtd">
<svg version="1.0" xmlns="http://www.w3.org/2000/svg"
 width="86.000000pt" height="96.000000pt" viewBox="0 0 86.000000 96.000000"
 preserveAspectRatio="xMidYMid meet">
<metadata>
Created by potrace 1.10, written by Peter Selinger 2001-2011
</metadata>
<g transform="translate(0.000000,96.000000) scale(0.100000,-0.100000)"
fill="#000000" stroke="none">
<path d="M470 916 c-14 -8 -35 -28 -48 -45 -12 -17 -26 -31 -30 -31 -4 0 -17
16 -30 35 -22 34 -24 35 -87 35 -35 0 -66 -4 -69 -9 -4 -5 14 -27 39 -49 47
-41 54 -52 33 -52 -60 0 -178 -79 -178 -119 0 -9 -5 -22 -11 -28 -21 -21 2
-33 66 -33 83 0 95 5 95 42 0 21 10 40 34 64 32 32 38 34 99 34 90 0 117 -21
117 -94 0 -83 -22 -99 -168 -122 -155 -23 -224 -56 -245 -117 -9 -25 32 -38
112 -35 l66 3 9 41 c8 33 16 45 43 58 63 30 167 14 203 -31 15 -20 20 -40 20
-87 0 -86 -10 -97 -92 -97 -37 -1 -71 2 -77 5 -21 13 -183 23 -224 14 -49 -11
-97 -52 -97 -83 0 -12 16 -38 35 -58 59 -61 190 -88 338 -69 87 11 248 -5 331
-33 44 -15 50 -15 64 -1 14 14 14 17 -3 36 -10 11 -48 35 -83 52 -97 48 -165
49 -294 8 -86 -28 -110 -32 -164 -27 -66 6 -149 38 -157 59 -7 20 13 68 33 78
30 16 111 11 191 -11 41 -11 114 -25 163 -31 111 -14 177 3 225 58 81 92 5
215 -149 239 l-45 7 42 13 c205 62 163 237 -63 263 -64 7 -67 9 -46 21 19 10
30 10 55 0 27 -11 32 -11 41 5 6 10 21 31 34 47 l23 28 -23 15 c-27 19 -94 20
-128 2z"/>
</g>
</svg>
