<?xml version="1.0" standalone="no"?>
<!DOCTYPE svg PUBLIC "-//W3C//DTD SVG 20010904//EN"
 "http://www.w3.org/TR/2001/REC-SVG-20010904/DTD/svg10.dtd">
<svg version="1.0" xmlns="http://www.w3.org/2000/svg"
 width="88.000000pt" height="98.000000pt" viewBox="0 0 88.000000 98.000000"
 preserveAspectRatio="xMidYMid meet">
<metadata>
Created by potrace 1.10, written by Peter Selinger 2001-2011
</metadata>
<g transform="translate(0.000000,98.000000) scale(0.100000,-0.100000)"
fill="#000000" stroke="none">
<path d="M440 909 c-19 -6 -40 -16 -47 -22 -9 -9 -12 -83 -13 -277 -1 -260 -5
-330 -19 -330 -7 0 -44 125 -101 335 -11 44 -23 88 -26 98 -4 12 0 17 15 17
26 0 36 17 21 35 -15 18 -192 21 -235 5 -33 -13 -28 -33 11 -40 25 -4 30 -12
41 -55 7 -28 24 -90 38 -140 15 -49 41 -139 58 -200 l32 -110 77 -3 c84 -3 90
-8 79 -63 -5 -24 -13 -35 -28 -37 -12 -2 -27 -10 -34 -19 -11 -13 -10 -17 6
-29 28 -21 258 -20 275 1 17 20 0 41 -40 49 -28 5 -30 9 -30 51 l0 45 44 0
c55 0 77 21 52 49 -16 17 -15 25 9 122 31 128 77 227 109 235 12 3 40 4 62 2
l39 -3 6 50 c4 28 10 57 14 66 4 12 -3 23 -23 38 -37 26 -43 26 -92 1 -76 -39
-109 -105 -165 -333 -20 -78 -39 -149 -43 -157 -4 -8 -9 129 -12 305 -5 311
-6 320 -25 322 -11 1 -36 -3 -55 -8z"/>
</g>
</svg>
