<?xml version="1.0" standalone="no"?>
<!DOCTYPE svg PUBLIC "-//W3C//DTD SVG 20010904//EN"
 "http://www.w3.org/TR/2001/REC-SVG-20010904/DTD/svg10.dtd">
<svg version="1.0" xmlns="http://www.w3.org/2000/svg"
 width="89.000000pt" height="91.000000pt" viewBox="0 0 89.000000 91.000000"
 preserveAspectRatio="xMidYMid meet">
<metadata>
Created by potrace 1.10, written by Peter Selinger 2001-2011
</metadata>
<g transform="translate(0.000000,91.000000) scale(0.100000,-0.100000)"
fill="#000000" stroke="none">
<path d="M411 856 c-18 -14 -45 -42 -58 -62 -43 -62 -103 -202 -111 -257 l-8
-52 -80 3 c-69 2 -83 -1 -98 -17 -17 -19 -17 -22 2 -78 11 -32 22 -77 25 -101
11 -91 48 -88 68 6 17 83 35 122 57 122 15 0 21 -12 30 -64 15 -80 46 -148
102 -222 63 -83 76 -94 114 -94 30 0 40 7 82 63 54 71 106 177 125 257 16 68
13 64 38 50 24 -13 44 -55 60 -130 14 -66 27 -83 51 -70 12 6 19 27 24 70 4
33 14 76 22 96 8 20 14 52 12 72 l-3 37 -91 -2 -91 -3 -6 75 c-8 114 -66 224
-150 288 -52 39 -77 42 -116 13z m26 -165 c32 -20 84 -114 98 -178 l7 -33
-106 0 -106 0 -1 48 c-4 133 9 182 50 182 14 0 40 -9 58 -19z m113 -340 c0
-90 -12 -122 -42 -117 -13 3 -26 5 -30 5 -30 4 -105 101 -123 159 -6 22 -5 22
94 22 l101 0 0 -69z"/>
</g>
</svg>
