<?xml version="1.0" standalone="no"?>
<!DOCTYPE svg PUBLIC "-//W3C//DTD SVG 20010904//EN"
 "http://www.w3.org/TR/2001/REC-SVG-20010904/DTD/svg10.dtd">
<svg version="1.0" xmlns="http://www.w3.org/2000/svg"
 width="88.000000pt" height="91.000000pt" viewBox="0 0 88.000000 91.000000"
 preserveAspectRatio="xMidYMid meet">
<metadata>
Created by potrace 1.10, written by Peter Selinger 2001-2011
</metadata>
<g transform="translate(0.000000,91.000000) scale(0.100000,-0.100000)"
fill="#000000" stroke="none">
<path d="M689 861 c-54 -45 -89 -128 -139 -331 -11 -46 -35 -136 -52 -199 -37
-133 -29 -141 -83 94 -18 83 -45 198 -59 256 -14 59 -26 109 -26 113 0 3 15 9
33 14 38 10 49 45 19 61 -23 12 -296 12 -330 0 -24 -9 -30 -46 -8 -55 11 -4
41 -9 77 -13 4 -1 15 -36 24 -78 10 -43 37 -157 61 -253 23 -96 54 -229 69
-295 15 -66 32 -126 38 -133 6 -8 44 -12 123 -12 104 0 114 2 124 21 13 23 -2
49 -26 49 -8 0 -14 2 -14 5 0 8 28 108 54 195 14 47 40 135 56 195 43 156 56
182 97 196 26 8 41 8 63 -1 44 -18 56 -8 64 52 3 29 9 67 12 85 7 38 -13 52
-89 60 -47 4 -56 2 -88 -26z"/>
</g>
</svg>
