<?xml version="1.0" standalone="no"?>
<!DOCTYPE svg PUBLIC "-//W3C//DTD SVG 20010904//EN"
 "http://www.w3.org/TR/2001/REC-SVG-20010904/DTD/svg10.dtd">
<svg version="1.0" xmlns="http://www.w3.org/2000/svg"
 width="96.000000pt" height="93.000000pt" viewBox="0 0 96.000000 93.000000"
 preserveAspectRatio="xMidYMid meet">
<metadata>
Created by potrace 1.10, written by Peter Selinger 2001-2011
</metadata>
<g transform="translate(0.000000,93.000000) scale(0.100000,-0.100000)"
fill="#000000" stroke="none">
<path d="M255 878 c-65 -24 -142 -112 -170 -198 -16 -48 -16 -52 0 -70 23 -25
106 -26 137 0 20 16 21 20 9 43 -11 21 -11 35 -2 74 19 75 36 95 78 91 25 -2
42 -11 56 -29 24 -33 57 -167 57 -233 l0 -49 -40 6 c-58 7 -164 -17 -213 -50
-52 -35 -78 -103 -79 -210 -1 -62 3 -78 25 -112 44 -67 90 -95 162 -99 82 -5
120 8 178 64 l48 46 49 -49 c46 -46 99 -73 145 -73 39 0 97 25 136 59 45 38
99 138 99 182 0 40 -20 50 -92 47 l-63 -3 0 -83 c0 -79 -1 -85 -28 -108 -53
-45 -97 -28 -126 49 -15 43 -41 176 -41 216 0 5 38 11 84 13 139 9 206 56 247
173 26 74 24 126 -6 185 -40 79 -112 120 -212 120 -58 0 -86 -13 -143 -66
l-49 -46 -43 42 c-80 79 -128 95 -203 68z m468 -89 c42 -19 57 -59 57 -149 0
-81 -1 -83 -34 -115 -33 -31 -75 -45 -138 -45 l-28 0 0 108 c0 83 5 116 19
148 28 61 69 78 124 53z m-302 -463 c-3 -154 -27 -205 -99 -206 -75 0 -106 52
-99 168 3 62 8 78 29 98 31 31 92 54 137 51 l34 -2 -2 -109z"/>
</g>
</svg>
