<?xml version="1.0" standalone="no"?>
<!DOCTYPE svg PUBLIC "-//W3C//DTD SVG 20010904//EN"
 "http://www.w3.org/TR/2001/REC-SVG-20010904/DTD/svg10.dtd">
<svg version="1.0" xmlns="http://www.w3.org/2000/svg"
 width="85.000000pt" height="90.000000pt" viewBox="0 0 85.000000 90.000000"
 preserveAspectRatio="xMidYMid meet">
<metadata>
Created by potrace 1.10, written by Peter Selinger 2001-2011
</metadata>
<g transform="translate(0.000000,90.000000) scale(0.100000,-0.100000)"
fill="#000000" stroke="none">
<path d="M102 842 c-20 -15 -24 -32 -32 -112 -5 -52 -10 -195 -10 -316 0 -351
9 -374 154 -374 67 0 88 4 107 19 l23 19 -17 173 c-20 204 -21 276 -5 422 l11
107 81 0 c160 0 199 -31 194 -154 l-3 -69 33 -9 c36 -10 72 4 72 27 0 17 30
79 83 176 34 61 36 66 21 87 -15 22 -16 22 -352 22 -307 0 -339 -2 -360 -18z"/>
</g>
</svg>
