<?xml version="1.0" standalone="no"?>
<!DOCTYPE svg PUBLIC "-//W3C//DTD SVG 20010904//EN"
 "http://www.w3.org/TR/2001/REC-SVG-20010904/DTD/svg10.dtd">
<svg version="1.0" xmlns="http://www.w3.org/2000/svg"
 width="94.000000pt" height="94.000000pt" viewBox="0 0 94.000000 94.000000"
 preserveAspectRatio="xMidYMid meet">
<metadata>
Created by potrace 1.10, written by Peter Selinger 2001-2011
</metadata>
<g transform="translate(0.000000,94.000000) scale(0.100000,-0.100000)"
fill="#000000" stroke="none">
<path d="M384 870 c-8 -8 -8 -25 -1 -57 9 -36 7 -59 -7 -117 -33 -133 -129
-343 -169 -368 -7 -4 -35 -8 -63 -8 -36 0 -56 -5 -67 -18 -14 -16 -12 -21 26
-74 23 -32 53 -76 67 -99 54 -90 89 -116 117 -88 8 8 7 18 -3 37 -8 15 -14 52
-14 83 0 90 8 94 205 94 151 0 166 -2 192 -21 44 -33 50 -63 26 -132 -23 -68
-18 -82 33 -82 28 0 35 7 69 62 21 35 55 84 76 110 53 63 63 91 40 112 -10 9
-29 16 -42 16 -14 0 -33 6 -42 12 -37 29 -163 360 -174 460 -10 90 -7 88 -141
88 -69 0 -122 -4 -128 -10z m91 -167 c10 -60 84 -284 111 -332 13 -24 23 -45
22 -47 -2 -1 -75 -6 -162 -9 l-159 -8 7 29 c4 15 16 40 27 55 10 15 19 32 19
38 0 11 40 112 64 162 7 14 21 54 31 87 10 34 22 62 26 62 5 0 11 -17 14 -37z"/>
</g>
</svg>
