<?xml version="1.0" standalone="no"?>
<!DOCTYPE svg PUBLIC "-//W3C//DTD SVG 20010904//EN"
 "http://www.w3.org/TR/2001/REC-SVG-20010904/DTD/svg10.dtd">
<svg version="1.0" xmlns="http://www.w3.org/2000/svg"
 width="92.000000pt" height="97.000000pt" viewBox="0 0 92.000000 97.000000"
 preserveAspectRatio="xMidYMid meet">
<metadata>
Created by potrace 1.10, written by Peter Selinger 2001-2011
</metadata>
<g transform="translate(0.000000,97.000000) scale(0.100000,-0.100000)"
fill="#000000" stroke="none">
<path d="M373 900 c-117 -24 -218 -121 -274 -265 -30 -76 -31 -86 -27 -185 6
-121 22 -169 81 -247 90 -119 297 -181 477 -142 48 10 200 100 200 118 0 4 -8
15 -18 24 -17 15 -22 14 -72 -12 -195 -102 -360 -33 -392 164 -14 84 -4 97 82
103 56 4 65 2 119 -32 91 -55 157 -45 251 41 45 39 48 52 22 76 -15 14 -24 15
-54 5 -32 -10 -41 -8 -94 21 -88 47 -169 43 -282 -17 -23 -12 -45 -22 -47 -22
-11 0 -4 107 11 163 21 82 40 116 71 128 36 13 88 -5 115 -42 52 -70 149 -109
217 -88 110 35 121 45 96 83 -14 21 -25 26 -59 26 -23 0 -46 4 -52 10 -22 22
-156 79 -210 89 -65 12 -101 12 -161 1z"/>
</g>
</svg>
