<?xml version="1.0" standalone="no"?>
<!DOCTYPE svg PUBLIC "-//W3C//DTD SVG 20010904//EN"
 "http://www.w3.org/TR/2001/REC-SVG-20010904/DTD/svg10.dtd">
<svg version="1.0" xmlns="http://www.w3.org/2000/svg"
 width="73.000000pt" height="89.000000pt" viewBox="0 0 73.000000 89.000000"
 preserveAspectRatio="xMidYMid meet">
<metadata>
Created by potrace 1.10, written by Peter Selinger 2001-2011
</metadata>
<g transform="translate(0.000000,89.000000) scale(0.100000,-0.100000)"
fill="#000000" stroke="none">
<path d="M80 845 c-8 -10 -9 -42 -2 -114 5 -56 12 -104 15 -107 3 -3 21 0 41
7 31 11 38 11 55 -5 16 -15 81 -150 81 -169 0 -3 -13 -10 -30 -17 -41 -17
-117 -101 -141 -157 -30 -69 -60 -182 -57 -212 3 -24 7 -26 63 -29 65 -3 85
10 85 55 0 78 86 293 110 278 6 -4 10 -69 10 -151 0 -81 5 -154 10 -165 8 -15
21 -19 58 -19 27 0 53 5 59 11 8 8 10 59 6 173 l-6 161 21 -19 c28 -25 59
-108 83 -224 10 -52 21 -98 25 -103 3 -5 32 -9 65 -9 53 0 61 3 68 22 9 26 -7
105 -40 194 -29 77 -92 160 -141 185 -45 23 -45 24 4 126 32 70 64 89 97 59
26 -24 37 -5 46 78 4 38 11 79 17 91 14 30 -5 65 -35 65 -46 0 -109 -93 -179
-265 l-28 -70 2 153 c3 168 2 172 -58 172 -63 0 -68 -12 -74 -177 l-5 -148
-39 98 c-68 173 -150 275 -186 232z"/>
</g>
</svg>
