<?xml version="1.0" standalone="no"?>
<!DOCTYPE svg PUBLIC "-//W3C//DTD SVG 20010904//EN"
 "http://www.w3.org/TR/2001/REC-SVG-20010904/DTD/svg10.dtd">
<svg version="1.0" xmlns="http://www.w3.org/2000/svg"
 width="92.000000pt" height="98.000000pt" viewBox="0 0 92.000000 98.000000"
 preserveAspectRatio="xMidYMid meet">
<metadata>
Created by potrace 1.10, written by Peter Selinger 2001-2011
</metadata>
<g transform="translate(0.000000,98.000000) scale(0.100000,-0.100000)"
fill="#000000" stroke="none">
<path d="M295 916 c-103 -27 -156 -64 -186 -131 -51 -111 2 -227 119 -261 55
-16 67 -16 223 8 90 13 138 6 179 -28 27 -23 30 -31 30 -86 0 -72 -22 -123
-64 -149 -40 -24 -88 -24 -168 1 -117 37 -181 24 -266 -55 -72 -66 -102 -116
-83 -139 19 -23 24 -21 76 24 26 22 63 48 83 56 45 20 179 22 269 5 75 -14
176 -1 242 32 87 43 151 146 151 243 0 55 -45 142 -89 171 -62 42 -99 46 -203
23 -156 -35 -228 -26 -277 36 -24 30 -27 86 -8 124 26 52 133 78 176 42 12 -9
34 -40 49 -67 33 -62 50 -65 136 -26 74 33 81 48 39 88 -92 84 -286 125 -428
89z"/>
</g>
</svg>
